<?xml version="1.0"?>
<svg xmlns="http://www.w3.org/2000/svg" width="84" height="84" viewBox="0 0 84 84" fill="none">
<circle cx="42.1162" cy="41.8789" r="41.4453" fill="black"/>
<path d="M54.8091 65.6667H29.4222C28.0772 65.6667 26.9844 64.5739 26.9844 63.2289V25.3167C26.9844 23.9717 28.0772 22.8789 29.4222 22.8789H54.8091C56.1541 22.8789 57.2469 23.9717 57.2469 25.3167V63.2289C57.3309 64.5739 56.1541 65.6667 54.8091 65.6667Z" stroke="white" stroke-width="1.68125" stroke-miterlimit="10" stroke-linecap="round" stroke-linejoin="round"/>
<path d="M52.8754 27.5859H31.4395V34.0588H52.8754V27.5859Z" stroke="white" stroke-width="1.68125" stroke-miterlimit="10" stroke-linecap="round" stroke-linejoin="round"/>
<path d="M52.8754 33.9805H31.4395V40.4533H52.8754V33.9805Z" stroke="white" stroke-width="1.68125" stroke-miterlimit="10" stroke-linecap="round" stroke-linejoin="round"/>
<path d="M52.8754 40.4531H31.4395V46.9259H52.8754V40.4531Z" stroke="white" stroke-width="1.68125" stroke-miterlimit="10" stroke-linecap="round" stroke-linejoin="round"/>
<path d="M52.8754 46.8359H31.4395V53.3087H52.8754V46.8359Z" stroke="white" stroke-width="1.68125" stroke-miterlimit="10" stroke-linecap="round" stroke-linejoin="round"/>
<path d="M52.8754 53.3125H31.4395V59.7853H52.8754V53.3125Z" stroke="white" stroke-width="1.68125" stroke-miterlimit="10" stroke-linecap="round" stroke-linejoin="round"/>
<path d="M48.6723 22.8834H35.5586V19.9413C35.5586 18.8484 36.3992 18.0078 37.492 18.0078H46.7389C47.8317 18.0078 48.6723 18.8484 48.6723 19.9413V22.8834Z" stroke="white" stroke-width="1.68125" stroke-miterlimit="10" stroke-linecap="round" stroke-linejoin="round"/>
</svg>
