<?xml version="1.0"?>
<svg xmlns="http://www.w3.org/2000/svg" width="169" height="38" viewBox="0 0 169 38" fill="none">
<path d="M86.6376 37.2111H83.5075L79.2102 24.2132H67.1673L62.9761 37.2111H59.793L71.7298 0.0742188H74.5416L86.6376 37.2111ZM67.9631 21.2953H78.4144L73.1092 4.63675L67.9631 21.2953Z" fill="black"/>
<path d="M52.4401 2.72685V37.2111H49.5222V2.72685H40.4502V0.0742188H61.7774V2.72685H52.4401Z" fill="black"/>
<path d="M30.0527 2.6738V0.0742188H36.6313V37.2111H33.6603V2.7799L30.0527 2.6738Z" fill="black"/>
<path d="M0.670898 0.0742188H3.85406L13.3505 33.5504L22.8469 0.0742188H26.0301L15.4195 37.2111H11.3345L0.670898 0.0742188Z" fill="black"/>
<path d="M168.06 37.2109C168.087 37.2109 167.94 37.2243 167.62 37.2509C167.327 37.2776 166.927 37.3043 166.42 37.3309C165.94 37.3843 165.407 37.4243 164.82 37.4509C164.26 37.5043 163.713 37.5443 163.18 37.5709C162.647 37.5976 162.193 37.6109 161.82 37.6109C160.54 37.6376 159.34 37.5576 158.22 37.3709C157.1 37.1843 156.127 36.8376 155.3 36.3309C154.473 35.7976 153.82 35.0509 153.34 34.0909C152.887 33.1309 152.66 31.9176 152.66 30.4509V22.8509C152.66 21.7309 152.847 20.7843 153.22 20.0109C153.62 19.2376 154.14 18.6243 154.78 18.1709C155.447 17.6909 156.167 17.3443 156.94 17.1309C157.74 16.9176 158.54 16.8109 159.34 16.8109C160.647 16.8109 161.833 16.9576 162.9 17.2509C163.967 17.5443 164.953 17.8909 165.86 18.2909V9.21094H168.06V37.2109ZM165.86 20.2909C164.793 19.8376 163.727 19.4643 162.66 19.1709C161.62 18.8509 160.46 18.6909 159.18 18.6909C158.833 18.6909 158.42 18.7443 157.94 18.8509C157.46 18.9576 156.98 19.1576 156.5 19.4509C156.047 19.7443 155.66 20.1843 155.34 20.7709C155.02 21.3309 154.86 22.0776 154.86 23.0109V30.1709C154.86 31.1309 154.967 31.9709 155.18 32.6909C155.393 33.3843 155.753 33.9709 156.26 34.4509C156.767 34.9043 157.447 35.2376 158.3 35.4509C159.18 35.6376 160.287 35.7176 161.62 35.6909C162.127 35.6643 162.593 35.6376 163.02 35.6109C163.473 35.5843 163.873 35.5576 164.22 35.5309C164.567 35.5043 164.86 35.4776 165.1 35.4509C165.34 35.4243 165.527 35.4109 165.66 35.4109C165.793 35.3843 165.86 35.3709 165.86 35.3709V20.2909Z" fill="black"/>
<path d="M147.26 23.5325C147.26 22.6258 147.114 21.8792 146.82 21.2925C146.527 20.6792 146.127 20.1992 145.62 19.8525C145.114 19.4792 144.554 19.2125 143.94 19.0525C143.327 18.8925 142.7 18.8125 142.06 18.8125C141.447 18.8125 140.847 18.8658 140.26 18.9725C139.7 19.0792 139.154 19.2392 138.62 19.4525C138.087 19.6392 137.54 19.8925 136.98 20.2125V37.2125H134.7V17.1725H136.98V18.5325C137.487 18.1858 138.034 17.8925 138.62 17.6525C139.234 17.3858 139.86 17.1858 140.5 17.0525C141.167 16.8925 141.834 16.8125 142.5 16.8125C143.38 16.8125 144.18 16.9058 144.9 17.0925C145.647 17.2792 146.3 17.5592 146.86 17.9325C147.42 18.3058 147.887 18.7592 148.26 19.2925C148.66 19.8258 148.954 20.4392 149.14 21.1325C149.354 21.7992 149.46 22.5592 149.46 23.4125V37.2125H147.26V23.5325Z" fill="black"/>
<path d="M129.098 23.2116C129.098 22.2249 128.925 21.4249 128.578 20.8116C128.258 20.1982 127.805 19.7316 127.218 19.4116C126.658 19.0916 126.005 18.8782 125.258 18.7716C124.512 18.6382 123.738 18.5716 122.938 18.5716L123.018 16.8516C124.645 16.8516 125.992 17.0116 127.058 17.3316C128.125 17.6249 128.965 18.1182 129.578 18.8116C130.218 19.4782 130.672 20.3849 130.938 21.5316C131.205 22.6516 131.338 24.0382 131.338 25.6916V37.2116C131.365 37.2116 131.218 37.2249 130.898 37.2516C130.605 37.2782 130.205 37.3049 129.698 37.3316C129.218 37.3849 128.685 37.4249 128.098 37.4516C127.538 37.5049 126.978 37.5449 126.418 37.5716C125.885 37.5982 125.418 37.6116 125.018 37.6116C123.738 37.6382 122.538 37.5582 121.418 37.3716C120.325 37.1849 119.365 36.8382 118.538 36.3316C117.738 35.7982 117.098 35.0516 116.618 34.0916C116.165 33.1316 115.938 31.9182 115.938 30.4516V27.1316C115.938 26.0116 116.098 25.0649 116.418 24.2916C116.765 23.5182 117.232 22.9049 117.818 22.4516C118.405 21.9716 119.058 21.6249 119.778 21.4116C120.525 21.1982 121.298 21.0916 122.098 21.0916C122.978 21.0916 123.832 21.1982 124.658 21.4116C125.485 21.5982 126.272 21.8516 127.018 22.1716C127.792 22.4916 128.485 22.8382 129.098 23.2116ZM129.098 25.0916C128.405 24.7182 127.658 24.3716 126.858 24.0516C126.058 23.7316 125.245 23.4782 124.418 23.2916C123.592 23.1049 122.752 23.0116 121.898 23.0116C121.552 23.0116 121.165 23.0649 120.738 23.1716C120.312 23.2782 119.898 23.4782 119.498 23.7716C119.098 24.0382 118.765 24.4516 118.498 25.0116C118.258 25.5716 118.138 26.3049 118.138 27.2116V30.1716C118.138 31.1316 118.232 31.9716 118.418 32.6916C118.632 33.4116 118.978 34.0116 119.458 34.4916C119.965 34.9449 120.658 35.2782 121.538 35.4916C122.418 35.6782 123.525 35.7449 124.858 35.6916C125.392 35.6649 125.872 35.6382 126.298 35.6116C126.752 35.5849 127.152 35.5582 127.498 35.5316C127.845 35.4782 128.138 35.4516 128.378 35.4516C128.618 35.4249 128.792 35.4116 128.898 35.4116C129.032 35.3849 129.098 35.3716 129.098 35.3716V25.0916Z" fill="black"/>
<path d="M99.7951 18.2909C100.408 18.0243 101.035 17.7843 101.675 17.5709C102.342 17.3309 103.048 17.1443 103.795 17.0109C104.568 16.8776 105.395 16.8109 106.275 16.8109C107.075 16.8109 107.862 16.9176 108.635 17.1309C109.435 17.3443 110.155 17.6909 110.795 18.1709C111.435 18.6243 111.942 19.2376 112.315 20.0109C112.715 20.7843 112.915 21.7309 112.915 22.8509V30.4509C112.915 31.9176 112.688 33.1309 112.235 34.0909C111.782 35.0509 111.142 35.7976 110.315 36.3309C109.488 36.8376 108.515 37.1843 107.395 37.3709C106.302 37.5576 105.115 37.6376 103.835 37.6109C103.462 37.6109 102.995 37.5976 102.435 37.5709C101.902 37.5443 101.342 37.5043 100.755 37.4509C100.195 37.4243 99.6617 37.3843 99.1551 37.3309C98.6484 37.3043 98.2351 37.2776 97.9151 37.2509C97.6217 37.2243 97.4884 37.2109 97.5151 37.2109V9.21094H99.7951V18.2909ZM99.7951 35.4109C99.7951 35.4109 99.8884 35.4243 100.075 35.4509C100.288 35.4509 100.568 35.4776 100.915 35.5309C101.288 35.5576 101.742 35.5843 102.275 35.6109C102.808 35.6376 103.395 35.6643 104.035 35.6909C105.368 35.7176 106.462 35.6376 107.315 35.4509C108.195 35.2376 108.875 34.9043 109.355 34.4509C109.862 33.9709 110.208 33.3843 110.395 32.6909C110.608 31.9709 110.715 31.1309 110.715 30.1709V23.0109C110.715 22.0776 110.568 21.3309 110.275 20.7709C109.982 20.1843 109.595 19.7443 109.115 19.4509C108.662 19.1576 108.195 18.9576 107.715 18.8509C107.235 18.7443 106.808 18.6909 106.435 18.6909C105.582 18.6909 104.782 18.7576 104.035 18.8909C103.315 19.0243 102.608 19.2109 101.915 19.4509C101.222 19.6909 100.515 19.9709 99.7951 20.2909V35.4109Z" fill="black"/>
</svg>
