<?xml version="1.0"?>
<svg xmlns="http://www.w3.org/2000/svg" width="168" height="39" viewBox="0 0 168 39" fill="none">
<path d="M86.1825 37.8556H83.0524L78.7552 24.8577H66.7122L62.521 37.8556H59.3379L71.2747 0.71875H74.0865L86.1825 37.8556ZM67.508 21.9398H77.9594L72.6541 5.28128L67.508 21.9398Z" fill="white"/>
<path d="M51.985 3.37138V37.8556H49.0671V3.37138H39.9951V0.71875H61.3223V3.37138H51.985Z" fill="white"/>
<path d="M29.5977 3.31833V0.71875H36.1762V37.8556H33.2052V3.42443L29.5977 3.31833Z" fill="white"/>
<path d="M0.21582 0.71875H3.39898L12.8954 34.195L22.3918 0.71875H25.575L14.9645 37.8556H10.8794L0.21582 0.71875Z" fill="white"/>
<path d="M167.605 37.8594C167.632 37.8594 167.485 37.8727 167.165 37.8994C166.872 37.926 166.472 37.9527 165.965 37.9794C165.485 38.0327 164.952 38.0727 164.365 38.0994C163.805 38.1527 163.258 38.1927 162.725 38.2194C162.192 38.246 161.738 38.2594 161.365 38.2594C160.085 38.286 158.885 38.206 157.765 38.0194C156.645 37.8327 155.672 37.486 154.845 36.9794C154.018 36.446 153.365 35.6994 152.885 34.7394C152.432 33.7794 152.205 32.566 152.205 31.0994V23.4994C152.205 22.3794 152.392 21.4327 152.765 20.6594C153.165 19.886 153.685 19.2727 154.325 18.8194C154.992 18.3394 155.712 17.9927 156.485 17.7794C157.285 17.566 158.085 17.4594 158.885 17.4594C160.192 17.4594 161.378 17.606 162.445 17.8994C163.512 18.1927 164.498 18.5394 165.405 18.9394V9.85938H167.605V37.8594ZM165.405 20.9394C164.338 20.486 163.272 20.1127 162.205 19.8194C161.165 19.4994 160.005 19.3394 158.725 19.3394C158.378 19.3394 157.965 19.3927 157.485 19.4994C157.005 19.606 156.525 19.806 156.045 20.0994C155.592 20.3927 155.205 20.8327 154.885 21.4194C154.565 21.9794 154.405 22.726 154.405 23.6594V30.8194C154.405 31.7794 154.512 32.6194 154.725 33.3394C154.938 34.0327 155.298 34.6194 155.805 35.0994C156.312 35.5527 156.992 35.886 157.845 36.0994C158.725 36.286 159.832 36.366 161.165 36.3394C161.672 36.3127 162.138 36.286 162.565 36.2594C163.018 36.2327 163.418 36.206 163.765 36.1794C164.112 36.1527 164.405 36.126 164.645 36.0994C164.885 36.0727 165.072 36.0594 165.205 36.0594C165.338 36.0327 165.405 36.0194 165.405 36.0194V20.9394Z" fill="white"/>
<path d="M146.805 24.1809C146.805 23.2743 146.658 22.5276 146.365 21.9409C146.072 21.3276 145.672 20.8476 145.165 20.5009C144.658 20.1276 144.098 19.8609 143.485 19.7009C142.872 19.5409 142.245 19.4609 141.605 19.4609C140.992 19.4609 140.392 19.5143 139.805 19.6209C139.245 19.7276 138.698 19.8876 138.165 20.1009C137.632 20.2876 137.085 20.5409 136.525 20.8609V37.8609H134.245V17.8209H136.525V19.1809C137.032 18.8343 137.578 18.5409 138.165 18.3009C138.778 18.0343 139.405 17.8343 140.045 17.7009C140.712 17.5409 141.378 17.4609 142.045 17.4609C142.925 17.4609 143.725 17.5543 144.445 17.7409C145.192 17.9276 145.845 18.2076 146.405 18.5809C146.965 18.9543 147.432 19.4076 147.805 19.9409C148.205 20.4743 148.498 21.0876 148.685 21.7809C148.898 22.4476 149.005 23.2076 149.005 24.0609V37.8609H146.805V24.1809Z" fill="white"/>
<path d="M128.643 23.86C128.643 22.8733 128.47 22.0733 128.123 21.46C127.803 20.8467 127.35 20.38 126.763 20.06C126.203 19.74 125.55 19.5267 124.803 19.42C124.057 19.2867 123.283 19.22 122.483 19.22L122.563 17.5C124.19 17.5 125.537 17.66 126.603 17.98C127.67 18.2733 128.51 18.7667 129.123 19.46C129.763 20.1267 130.217 21.0333 130.483 22.18C130.75 23.3 130.883 24.6867 130.883 26.34V37.86C130.91 37.86 130.763 37.8733 130.443 37.9C130.15 37.9267 129.75 37.9533 129.243 37.98C128.763 38.0333 128.23 38.0733 127.643 38.1C127.083 38.1533 126.523 38.1933 125.963 38.22C125.43 38.2467 124.963 38.26 124.563 38.26C123.283 38.2867 122.083 38.2067 120.963 38.02C119.87 37.8333 118.91 37.4867 118.083 36.98C117.283 36.4467 116.643 35.7 116.163 34.74C115.71 33.78 115.483 32.5667 115.483 31.1V27.78C115.483 26.66 115.643 25.7133 115.963 24.94C116.31 24.1667 116.777 23.5533 117.363 23.1C117.95 22.62 118.603 22.2733 119.323 22.06C120.07 21.8467 120.843 21.74 121.643 21.74C122.523 21.74 123.377 21.8467 124.203 22.06C125.03 22.2467 125.817 22.5 126.563 22.82C127.337 23.14 128.03 23.4867 128.643 23.86ZM128.643 25.74C127.95 25.3667 127.203 25.02 126.403 24.7C125.603 24.38 124.79 24.1267 123.963 23.94C123.137 23.7533 122.297 23.66 121.443 23.66C121.097 23.66 120.71 23.7133 120.283 23.82C119.857 23.9267 119.443 24.1267 119.043 24.42C118.643 24.6867 118.31 25.1 118.043 25.66C117.803 26.22 117.683 26.9533 117.683 27.86V30.82C117.683 31.78 117.777 32.62 117.963 33.34C118.177 34.06 118.523 34.66 119.003 35.14C119.51 35.5933 120.203 35.9267 121.083 36.14C121.963 36.3267 123.07 36.3933 124.403 36.34C124.937 36.3133 125.417 36.2867 125.843 36.26C126.297 36.2333 126.697 36.2067 127.043 36.18C127.39 36.1267 127.683 36.1 127.923 36.1C128.163 36.0733 128.337 36.06 128.443 36.06C128.577 36.0333 128.643 36.02 128.643 36.02V25.74Z" fill="white"/>
<path d="M99.34 18.9394C99.9533 18.6727 100.58 18.4327 101.22 18.2194C101.887 17.9794 102.593 17.7927 103.34 17.6594C104.113 17.526 104.94 17.4594 105.82 17.4594C106.62 17.4594 107.407 17.566 108.18 17.7794C108.98 17.9927 109.7 18.3394 110.34 18.8194C110.98 19.2727 111.487 19.886 111.86 20.6594C112.26 21.4327 112.46 22.3794 112.46 23.4994V31.0994C112.46 32.566 112.233 33.7794 111.78 34.7394C111.327 35.6994 110.687 36.446 109.86 36.9794C109.033 37.486 108.06 37.8327 106.94 38.0194C105.847 38.206 104.66 38.286 103.38 38.2594C103.007 38.2594 102.54 38.246 101.98 38.2194C101.447 38.1927 100.887 38.1527 100.3 38.0994C99.74 38.0727 99.2066 38.0327 98.7 37.9794C98.1933 37.9527 97.78 37.926 97.46 37.8994C97.1666 37.8727 97.0333 37.8594 97.06 37.8594V9.85938H99.34V18.9394ZM99.34 36.0594C99.34 36.0594 99.4333 36.0727 99.62 36.0994C99.8333 36.0994 100.113 36.126 100.46 36.1794C100.833 36.206 101.287 36.2327 101.82 36.2594C102.353 36.286 102.94 36.3127 103.58 36.3394C104.913 36.366 106.007 36.286 106.86 36.0994C107.74 35.886 108.42 35.5527 108.9 35.0994C109.407 34.6194 109.753 34.0327 109.94 33.3394C110.153 32.6194 110.26 31.7794 110.26 30.8194V23.6594C110.26 22.726 110.113 21.9794 109.82 21.4194C109.527 20.8327 109.14 20.3927 108.66 20.0994C108.207 19.806 107.74 19.606 107.26 19.4994C106.78 19.3927 106.353 19.3394 105.98 19.3394C105.127 19.3394 104.327 19.406 103.58 19.5394C102.86 19.6727 102.153 19.8594 101.46 20.0994C100.767 20.3394 100.06 20.6194 99.34 20.9394V36.0594Z" fill="white"/>
</svg>
